<?xml version="1.0" standalone="no"?>
<!DOCTYPE svg PUBLIC "-//W3C//DTD SVG 20010904//EN"
 "http://www.w3.org/TR/2001/REC-SVG-20010904/DTD/svg10.dtd">
<svg version="1.0" xmlns="http://www.w3.org/2000/svg"
 width="700.000000pt" height="700.000000pt" viewBox="0 0 700.000000 700.000000"
 preserveAspectRatio="xMidYMid meet">
<metadata>
Created by potrace 1.11, written by Peter Selinger 2001-2013
</metadata>
<g transform="translate(0.000000,700.000000) scale(0.100000,-0.100000)"
fill="#000000" stroke="none">
<path d="M1985 5424 c-296 -44 -617 -179 -1006 -423 -109 -67 -114 -75 -160
-239 -30 -105 -35 -117 -81 -162 -27 -27 -102 -89 -166 -138 -198 -152 -254
-215 -256 -287 -1 -24 1 -45 4 -48 3 -3 93 39 200 92 273 134 352 165 669 261
65 19 185 77 431 207 234 124 390 146 510 72 105 -64 154 -207 154 -444 0
-147 -19 -323 -48 -440 -14 -61 -60 -179 -114 -295 -38 -82 -134 -238 -311
-502 -104 -156 -215 -332 -247 -393 -52 -97 -120 -252 -128 -295 -2 -8 -6 -22
-9 -30 -18 -45 -37 -188 -38 -275 0 -206 83 -391 196 -436 34 -13 160 -36 250
-44 33 -4 78 -8 100 -11 225 -26 3729 -26 3915 1 14 2 53 6 87 10 59 7 66 11
158 87 339 281 525 562 578 873 11 68 14 219 4 280 -15 97 -21 124 -34 148
-26 51 -59 33 -194 -104 -121 -123 -192 -169 -260 -169 -61 0 -214 87 -394
224 -97 74 -259 182 -337 224 -77 42 -230 98 -331 122 -80 19 -99 22 -242 40
-69 9 -401 6 -460 -4 -172 -28 -227 -39 -336 -65 -200 -49 -571 -176 -776
-265 -231 -99 -566 -253 -624 -285 -44 -25 -522 -262 -544 -271 -24 -9 -26 -8
-19 12 11 38 74 151 164 298 56 90 174 288 200 335 18 33 48 87 67 120 43 75
152 298 192 390 72 170 117 342 137 525 2 25 9 83 15 130 6 47 12 175 14 285
4 271 -20 390 -108 547 -84 149 -249 267 -444 319 -76 21 -301 34 -378 23z"/>
</g>
</svg>
