<?xml version="1.0" encoding="utf-8"?>
<!-- Generator: Adobe Illustrator 20.0.0, SVG Export Plug-In . SVG Version: 6.00 Build 0)  -->
<svg version="1.1" id="Layer_1" xmlns="http://www.w3.org/2000/svg" xmlns:xlink="http://www.w3.org/1999/xlink" x="0px" y="0px"
	 viewBox="0 0 488.7 296" style="enable-background:new 0 0 488.7 296;" xml:space="preserve">
<style type="text/css">
	.st0{fill:#FFFFFF;}
	.st1{fill:none;}
	.st2{fill:#E7E7E7;stroke:#999999;stroke-miterlimit:10;}
	.st3{fill:none;stroke:#57B3FF;stroke-miterlimit:10;}
	.st4{fill:#FF8155;}
	.st5{fill:#565656;}
	.st6{fill:#57B3FF;}
</style>
<g id="svg2" xmlns:cc="http://creativecommons.org/ns#" xmlns:dc="http://purl.org/dc/elements/1.1/" xmlns:rdf="http://www.w3.org/1999/02/22-rdf-syntax-ns#" xmlns:svg="http://www.w3.org/2000/svg">
	<g id="svg5000">
		<g id="layer1">
		</g>
		<g id="layer5_1_">
			<path id="path5550_1_" class="st0" d="M191.2,251.7c0,0,239.6,3.3,246.9-2.2c26.9-20.2,51.2-49.9,41.8-86.7
				c-3.7-14.5-18.6,21.2-33.2,15.3c-26.6-10.7-38.5-40.8-98.6-39.3c-61.8,1.5-158.1,60.6-159.5,58.2c-2.4-4.2,43.3-63,48.2-101.8
				c4.1-32.6,8.8-67.4-19.7-83.7c-33.3-19-75.3,3.1-107.5,23.8c-4.9,3.2-3.3,16.7-9.1,22C86.7,70,68.3,78.3,73,88.5
				c0,0,31.8-17.8,50.9-21.6c21.6-4.2,46.4-30.8,65.3-19.4c12.5,7.5,10.3,34.6,8.2,49C190.3,143,140.6,174,141,221
				c0.1,10.5,5,25.5,15.3,27.5C170.5,251.4,191.2,251.7,191.2,251.7L191.2,251.7z"/>
		</g>
		<g id="g11">
			<path id="path13" class="st1" d="M305.8,198.3c0.6,14.7-13.8,25.8-17.4,28.3c0.2-0.1,0.4-0.2,0.6-0.4
				C293.2,223.2,306.5,212.4,305.8,198.3c-0.9-15.2-6.5-22.5-14.7-22.4C299.3,175.8,304.8,183.2,305.8,198.3z"/>
			<path id="path15" class="st1" d="M270.6,190.8c2,0.6,9.2-0.1,10-0.2l0,0C280.6,190.6,272.9,191.4,270.6,190.8z"/>
			<path id="path17" class="st1" d="M316.7,218.5c0.1,0,0.2,0,0.3,0C316.9,218.5,316.8,218.5,316.7,218.5z"/>
			<path id="path19" class="st1" d="M272.6,248c-0.2-0.3-0.4-0.6-0.6-0.9C272.2,247.4,272.4,247.7,272.6,248z"/>
			<path id="path21" class="st1" d="M271.2,245.5c-0.1-0.1-0.1-0.3-0.2-0.4C271,245.2,271.1,245.3,271.2,245.5z"/>
			<path id="path23" class="st1" d="M318.1,218.6c0.5,0,0.9,0,1.4,0.1C319,218.6,318.6,218.6,318.1,218.6z"/>
			<path id="path25" class="st1" d="M274.3,250c-0.2-0.2-0.5-0.5-0.7-0.8C273.8,249.5,274.1,249.7,274.3,250z"/>
			<path id="path27" class="st1" d="M288.2,192.3c3.3,0.1,4.4-1.5,5.7-1.9c0.1,0,0.2-0.1,0.3-0.1c-0.1,0-0.2,0-0.4,0.1
				C292.5,190.9,291.4,192.4,288.2,192.3z"/>
			<path id="path29" class="st1" d="M276.3,251.5c-0.2-0.1-0.5-0.3-0.7-0.5C275.8,251.2,276,251.4,276.3,251.5z"/>
			<path id="path31" class="st1" d="M271.9,246.8c-0.1-0.2-0.3-0.5-0.4-0.7C271.6,246.3,271.7,246.5,271.9,246.8z"/>
			<path id="path33" class="st1" d="M275.3,250.8c-0.3-0.2-0.5-0.4-0.7-0.6C274.8,250.4,275,250.6,275.3,250.8z"/>
			<path id="path35" class="st1" d="M277.4,252.1c-0.2-0.1-0.5-0.2-0.7-0.3C276.9,251.8,277.1,252,277.4,252.1z"/>
			<path id="path37" class="st1" d="M273.4,249c-0.2-0.3-0.5-0.6-0.7-0.9C273,248.5,273.2,248.7,273.4,249z"/>
			<path id="path39" class="st2" d="M479.9,162.7c-3.7-14.5-18.6,21.2-33.2,15.3c-26.6-10.7-38.5-40.8-98.6-39.3
				c-61.8,1.5-158.1,60.6-159.5,58.2c-2.4-4.2,43.3-63,48.2-101.8c4.1-32.6,8.8-67.4-19.7-83.7c-8.9-5-18.3-7.2-28.1-7.2
				c-26.8-0.1-55.7,15.8-79.4,31c-4.2,2.8-3.6,13.2-7.1,19.4c-0.6,1-1.2,1.9-2,2.6C86.6,69.9,68.3,78.2,73,88.4
				c0,0,31.8-17.8,50.9-21.6c21.6-4.2,46.4-30.8,65.3-19.4c12.5,7.5,10.3,34.6,8.2,49c-7.1,46.5-56.7,77.5-56.3,124.5
				c0.1,10.5,5,25.5,15.3,27.5c14.2,2.9,34.8,3.2,34.8,3.2s6.2,0.1,16.5,0.2c-3.5-2-5.5-7.4-5.1-11.5c1-10.3,15.6-13.3,16.8-23.6
				c0.5-6.1,1-6.7-0.1-6.4c-1,0.5-1.9,2-5.6,1.1l-3.2-1c0,0-6.8,0.7-7.1,0c0,0,1.7-1,3.2-2.3c1-0.8,1.6-1.5,2.6-2.4
				c0,0-0.1-2.8,3.4-3.9c8.4-3.7,14.2,0.7,15.1,13.9c0.4,10.2-9.9,17.9-12,19.3c1.9-1.3,10.8-6.6,22.5-5.3
				c11.1,1.1,17.3,2,16.7,11.9c-0.3,5.7-2.5,7.6-6.8,10.6c9.4,0.1,19.6,0.2,30.2,0.2c-0.2,0-0.3-0.1-0.5-0.2
				c-0.2-0.1-0.3-0.1-0.5-0.2c-0.2-0.1-0.5-0.2-0.7-0.3c-0.1-0.1-0.3-0.1-0.4-0.2c-0.2-0.1-0.5-0.3-0.7-0.5
				c-0.1-0.1-0.2-0.1-0.3-0.2c-0.3-0.2-0.5-0.4-0.7-0.6c-0.1-0.1-0.1-0.1-0.2-0.2c-0.2-0.2-0.5-0.5-0.7-0.8
				c-0.1-0.1-0.1-0.1-0.2-0.2c-0.2-0.3-0.5-0.6-0.7-0.9c-0.1-0.1-0.1-0.1-0.2-0.2c-0.2-0.3-0.4-0.6-0.6-0.9
				c-0.1-0.1-0.1-0.2-0.2-0.3c-0.1-0.2-0.3-0.5-0.4-0.7s-0.2-0.4-0.3-0.6c-0.1-0.1-0.1-0.3-0.2-0.4c-1.5-3.3-2.2-7.1-1.9-10.2
				c1.7-15.3,23.1-19.8,24.9-35c0.7-8.1,1.3-9.7,0.2-9.5c-0.1,0-0.2,0.1-0.3,0.1c-1.3,0.5-2.4,2-5.7,1.9c-0.8,0-1.7-0.1-2.8-0.3
				l-4.8-1.4c-0.8,0.1-8,0.8-10,0.2c-0.3-0.1-0.6-0.2-0.6-0.3c0,0,2.6-1.5,4.7-3.4c1.4-1.3,2.4-2.3,3.8-3.6c0,0-0.1-4.2,5-5.8
				c2.7-1.2,5.3-1.8,7.6-1.8c8.2-0.1,13.8,7.2,14.8,22.4c0.6,14.1-12.7,24.9-16.9,28c3.6-2.3,14-7.9,27.7-7.7c0.1,0,0.2,0,0.3,0
				c0.4,0,0.7,0,1.1,0c0.5,0,0.9,0,1.4,0.1h0.1c0.6,0,1.3,0.1,1.9,0.2c16.3,1.8,25.6,3,24.7,17.6c-0.5,8.6-3.8,11.4-10,15.8
				c-0.2,0.1-0.6,0.3-1.1,0.4c9.7,0,19.3,0,28.4-0.1c-7.2-3.1-11.2-14.1-10.2-21.9c2.1-19.5,29.5-25.2,31.7-44.6
				c1.1-11.5,1.8-12.8-0.2-12.1s-3.7,3.6-10.7,2l-6.1-1.8c0,0-12.8,1.4-13.4-0.1c0,0,3.3-1.9,6-4.3c1.8-1.7,3-2.9,4.8-4.6
				c0,0-0.1-5.5,6.4-7.5c15.6-6.9,26.7,1.5,28.3,26.3c0.7,18.7-17.5,32.8-22.1,36.1c4.2-2.8,20.5-12.3,41.9-10
				c20.8,2.3,32.7,3.9,31.5,22.5c-0.1,2.7-0.5,4.9-1.1,6.8C471.7,219.8,487.8,193.8,479.9,162.7z"/>
			<path id="path41" class="st0" d="M288.4,226.6c-0.5,0.3-0.8,0.6-0.8,0.6S287.9,227,288.4,226.6z"/>
			<path id="path59" class="st0" d="M319.6,218.6h-0.1H319.6z"/>
			<path id="path61" class="st0" d="M288.4,226.8c-0.4,0.2-0.7,0.5-0.7,0.5S287.9,227.1,288.4,226.8z"/>
			<path id="path65" class="st0" d="M317,218.5c0.4,0,0.7,0,1.1,0C317.7,218.5,317.4,218.5,317,218.5z"/>
			<path id="path73" class="st0" d="M215.7,235c-0.3,0.2-0.4,0.3-0.4,0.3S215.4,235.2,215.7,235z"/>
			<path id="path75" class="st0" d="M378,220c-0.7,0.5-1.1,0.7-1.1,0.7S377.3,220.4,378,220z"/>
		</g>
		<path id="path77" class="st3" d="M473.6,262.5"/>
	</g>
	<g id="Layer_2">
		<g id="layer5">
			<path id="path5550_3_" class="st4" d="M102.5,54.6C95.7,64.5,67.4,77.2,73,88.3c0.1,0.1,23.7-13.1,41.5-18.9
				c-2-1.1-0.8-8.5-3.7-12.5C108.8,54.1,103.1,56.6,102.5,54.6z"/>
		</g>
	</g>
</g>
<g id="Layer_2_1_">
	<path class="st5" d="M102.5,54.6c0,0,1.2-2.6,2.4-6.7c0.7-2.3,0.4-2.5,1-3.3c2.1-3.2,16.6-4.1,17.5,0.1c1.2,5.5-4.6,7.1-3.7,13
		c0.8,5.4-0.5,9.9-5.2,11.6c-1-0.3-1.1-2.3-1.7-6.4c-0.2-1.6-0.9-5.1-2.6-6.7c-0.7-0.7-2.1-0.9-5-0.8
		C103.3,55.7,102.4,55.1,102.5,54.6z"/>
	<g>
		<path class="st6" d="M4.2,233c0,0,0.4-0.3,1.2-0.9c0.8-0.6,1.9-1.5,3.5-2.5c3-2,7.5-4.8,13.6-7.1c3-1.1,6.4-2.2,10.1-2.9
			s7.7-1.2,11.8-1.2c4.1-0.1,8.4,0.3,12.7,1.1c2.1,0.4,4.3,0.9,6.4,1.4c1,0.3,2.1,0.6,3.1,0.9l2.9,1l1.4,0.5l1.2,0.3
			c0.8,0.2,1.7,0.4,2.5,0.7c1.7,0.4,3.5,0.8,5.2,1.1c3.5,0.6,7,0.9,10.5,0.9c3.5,0.1,6.9-0.1,10.2-0.4c3.3-0.3,6.4-0.7,9.4-1.1
			c2.9-0.4,5.7-0.9,8.1-1.3c2.4-0.4,4.6-0.8,6.4-1c3.6-0.6,5.7-0.7,5.7-0.7s-1.7,1.3-4.7,3.3c-3,2-7.4,4.8-13.2,7.5
			c-1.4,0.7-3,1.3-4.6,1.9c-1.6,0.6-3.3,1.2-5.1,1.7c-3.6,1.1-7.4,2-11.5,2.4c-4.1,0.5-8.5,0.6-12.9,0.1c-2.2-0.2-4.4-0.6-6.6-1
			c-1.1-0.3-2.2-0.5-3.3-0.8l-1.7-0.5l-1.5-0.5l-2.9-1c-0.9-0.3-1.8-0.6-2.7-0.9c-0.9-0.3-1.8-0.5-2.7-0.8c-0.9-0.2-1.8-0.5-2.7-0.7
			c-3.5-0.9-7.1-1.6-10.5-2c-1.7-0.2-3.4-0.4-5.1-0.5c-1.7-0.1-3.3-0.2-5-0.2c-3.2,0-6.4,0.1-9.3,0.3c-5.8,0.5-10.8,1.3-14.4,1.9
			c-1.8,0.3-3.2,0.5-4.2,0.6C4.7,233,4.2,233,4.2,233z"/>
	</g>
	<g>
		<path class="st6" d="M6.2,272.4c0,0,0.5-0.5,1.5-1.3c1-0.9,2.5-2.1,4.5-3.5s4.6-3.1,7.6-4.7c1.5-0.8,3.2-1.6,5-2.5
			c1.8-0.8,3.7-1.6,5.7-2.3c2-0.7,4.2-1.4,6.5-2s4.7-1.1,7.1-1.6c2.5-0.4,5-0.7,7.7-1c2.6-0.2,5.4-0.3,8.1-0.3
			c5.5,0.1,11.2,0.7,16.9,1.8c1.4,0.3,2.8,0.6,4.3,0.9c1.4,0.4,2.8,0.7,4.2,1.1c2.6,0.8,5.2,1.6,7.8,2.4c2.3,0.7,4.8,1.3,7.3,1.9
			c1.2,0.3,2.5,0.6,3.7,0.8c1.2,0.3,2.5,0.5,3.7,0.7c5,0.9,9.9,1.4,14.7,1.7c2.4,0.1,4.8,0.2,7.1,0.2c1.2,0,2.3,0,3.5,0
			c1.1,0,2.3,0,3.4-0.1c4.5-0.2,8.8-0.5,12.7-1c7.9-1,14.6-2.3,19.2-3.4c2.3-0.6,4.2-1,5.5-1.3s2-0.5,2-0.5s-0.5,0.5-1.5,1.3
			s-2.6,2-4.6,3.4c-4.1,2.8-10.3,6.3-18.3,9.3c-4,1.5-8.5,2.9-13.3,3.9c-2.4,0.6-4.9,1-7.5,1.4c-1.3,0.2-2.6,0.3-3.9,0.5
			c-1.3,0.1-2.7,0.2-4,0.3c-5.4,0.3-11.1,0.2-16.8-0.4c-1.4-0.1-2.9-0.3-4.3-0.6c-1.4-0.2-2.9-0.5-4.3-0.7c-2.9-0.6-5.7-1.2-8.6-2
			l-1.1-0.3l-1-0.3c-0.7-0.2-1.3-0.4-2-0.6c-1.3-0.4-2.6-0.8-3.8-1.2c-2.4-0.7-4.9-1.4-7.3-2c-4.9-1.2-9.7-2.1-14.4-2.7
			c-2.4-0.3-4.7-0.5-7-0.7s-4.6-0.2-6.8-0.2s-4.4,0-6.5,0.2c-2.1,0.1-4.1,0.2-6.1,0.5c-2,0.2-3.8,0.4-5.6,0.7
			c-1.8,0.3-3.5,0.5-5.1,0.9c-3.2,0.6-6,1.2-8.4,1.8c-2.4,0.6-4.2,1.1-5.5,1.4C6.9,272.2,6.2,272.4,6.2,272.4z"/>
	</g>
	<g>
		<path class="st6" d="M168.3,287.2c0,0,0.2-0.2,0.7-0.6c0.4-0.4,1-1,1.9-1.6c1.8-1.4,4.4-3.3,8.1-5.4c3.6-2.1,8.2-4.3,13.7-6.5
			c2.7-1.1,5.7-2.1,8.8-3.1s6.5-1.9,10-2.8c1.8-0.4,3.6-0.8,5.4-1.2c1.8-0.4,3.7-0.7,5.6-1.1c3.8-0.7,7.8-1.2,11.9-1.7
			c8.2-0.9,17-1.4,26-1.2c2.3,0,4.5,0.1,6.8,0.2s4.6,0.3,6.9,0.4c2.3,0.2,4.7,0.4,7,0.7c2.3,0.3,4.7,0.6,7.1,0.9
			c4.7,0.7,9.5,1.5,14.2,2.6c2.4,0.5,4.7,1.1,7.1,1.6l3.3,0.8l3.4,0.8l6.6,1.5c2.2,0.5,4.4,0.9,6.6,1.4c2.2,0.4,4.4,0.9,6.6,1.3
			s4.4,0.8,6.6,1.2c4.4,0.7,8.8,1.4,13.1,1.9c2.2,0.3,4.3,0.5,6.5,0.7c1.1,0.1,2.1,0.2,3.2,0.4c1.1,0.1,2.1,0.2,3.2,0.3
			c4.2,0.4,8.4,0.6,12.5,0.8c4.1,0.2,8.1,0.2,12,0.2c7.8,0,15.2-0.4,22-1s13.1-1.5,18.6-2.5s10.3-2,14.3-3s7.1-1.8,9.2-2.4
			s3.3-0.9,3.3-0.9s-0.2,0.2-0.7,0.5s-1.2,0.8-2.1,1.4c-1.9,1.1-4.7,2.9-8.4,4.8c-7.4,3.9-18.4,8.7-32.4,12.3
			c-7,1.8-14.7,3.3-22.9,4.3c-8.2,1-17,1.5-26,1.4c-4.5,0-9.1-0.2-13.8-0.5c-4.6-0.3-9.3-0.8-14-1.4c-2.3-0.3-4.7-0.7-7.1-1
			c-2.3-0.4-4.7-0.8-7.1-1.2c-2.3-0.5-4.7-0.9-7.1-1.4l-7.1-1.6l-3.4-0.8l-3.5-0.9c-2.2-0.5-4.3-1.1-6.5-1.6l-3.3-0.7l-3.3-0.7
			c-2.2-0.5-4.4-0.9-6.5-1.3c-8.7-1.6-17.4-2.7-25.9-3.5c-2.1-0.2-4.2-0.4-6.3-0.5c-2.1-0.1-4.1-0.3-6.2-0.3
			c-4.1-0.2-8.1-0.3-12-0.3c-2,0-3.9,0-5.8,0c-1.9,0.1-3.8,0.1-5.6,0.2c-3.7,0.1-7.2,0.3-10.6,0.6c-6.8,0.5-13.1,1.3-18.6,2.2
			c-5.5,0.9-10.3,2-14.2,3.1s-6.9,2.1-8.9,3c-1,0.4-1.8,0.8-2.3,1C168.6,287.1,168.3,287.2,168.3,287.2z"/>
	</g>
</g>
</svg>
