<?xml version="1.0" encoding="utf-8"?>
<!-- Generator: Adobe Illustrator 20.0.0, SVG Export Plug-In . SVG Version: 6.00 Build 0)  -->
<svg version="1.1"
	 id="svg2" inkscape:version="0.91 r13725" sodipodi:docname="Sunset Cottage Logo4.svg" xmlns:cc="http://creativecommons.org/ns#" xmlns:dc="http://purl.org/dc/elements/1.1/" xmlns:inkscape="http://www.inkscape.org/namespaces/inkscape" xmlns:rdf="http://www.w3.org/1999/02/22-rdf-syntax-ns#" xmlns:sodipodi="http://sodipodi.sourceforge.net/DTD/sodipodi-0.dtd" xmlns:svg="http://www.w3.org/2000/svg"
	 xmlns="http://www.w3.org/2000/svg" xmlns:xlink="http://www.w3.org/1999/xlink" x="0px" y="0px" viewBox="0 0 207 169"
	 style="enable-background:new 0 0 207 169;" xml:space="preserve">
<style type="text/css">
	.st0{fill:url(#path4145_2_);}
	.st1{fill:#00CCCC;stroke:#00CCCC;stroke-width:7;stroke-linecap:round;stroke-linejoin:round;}
</style>
<sodipodi:namedview  bordercolor="#666666" borderopacity="1.0" id="base" inkscape:bbox-nodes="true" inkscape:bbox-paths="true" inkscape:current-layer="layer10" inkscape:cx="270.89777" inkscape:cy="856.54722" inkscape:document-units="px" inkscape:object-nodes="true" inkscape:object-paths="true" inkscape:pageopacity="0.0" inkscape:pageshadow="2" inkscape:snap-bbox="true" inkscape:snap-bbox-edge-midpoints="true" inkscape:snap-bbox-midpoints="true" inkscape:snap-center="true" inkscape:snap-global="true" inkscape:snap-intersection-paths="true" inkscape:snap-midpoints="true" inkscape:snap-nodes="true" inkscape:snap-object-midpoints="true" inkscape:snap-smooth-nodes="true" inkscape:snap-text-baseline="true" inkscape:window-height="957" inkscape:window-maximized="1" inkscape:window-width="2560" inkscape:window-x="1920" inkscape:window-y="1" inkscape:zoom="1.8464139" pagecolor="#ffffff" showgrid="false">
	</sodipodi:namedview>
<g id="layer1_1_" inkscape:groupmode="layer" inkscape:label="Layer 1">
	
		<radialGradient id="path4145_2_" cx="190.48" cy="-143.8529" r="118.5176" gradientTransform="matrix(0.8 0 0 -0.7075 -48.8 15.5511)" gradientUnits="userSpaceOnUse">
		<stop  offset="0" style="stop-color:#FBEE4D"/>
		<stop  offset="1" style="stop-color:#FBA84D"/>
	</radialGradient>
	
		<path id="path4145_1_" inkscape:connector-curvature="0" sodipodi:nodetypes="cccccccssscccssscccssscccssscccssscccssscccssscccsccc" class="st0" d="
		M101.7,7.2C49.3,7.2,6.9,49.6,6.9,102c0,5.5,0.5,10.9,1.5,16.3c3.7-0.3,5.4-1.9,8.9-4.3c1.5-1.2,2.8-2.2,2.8-2.2l0.3-0.2l0.3,0.2
		c0,0,1.8,1.7,4.1,3.4c2.4,1.7,5.3,3.3,7.3,3.3s4.8-1.6,7-3.2s4-3.2,4-3.2l0.3-0.3l0.3,0.3c0,0,1.7,1.6,4,3.2c2.2,1.6,5,3.2,7,3.2
		s4.8-1.6,7-3.2c2.3-1.6,4-3.2,4-3.2l0.3-0.3l0.3,0.3c0,0,1.7,1.6,4,3.2c2.3,1.6,5.1,3.2,7,3.2c2,0,4.8-1.6,7-3.2
		c2.2-1.6,4-3.2,4-3.2l0.3-0.3l0.3,0.3c0,0,1.7,1.6,4,3.2c2.2,1.6,5.1,3.2,7,3.2c2,0,4.8-1.6,7.1-3.2s4-3.3,4-3.3l0.3-0.3l0.3,0.3
		c0,0,1.7,1.6,4,3.3c2.3,1.6,5.1,3.2,7.1,3.2c2.1,0,5.1-1.7,7.4-3.4s4.2-3.4,4.2-3.4l0.3-0.3l0.3,0.3c0,0,1.8,1.7,4.2,3.4
		s5.3,3.4,7.4,3.4c2.1,0,5.2-1.7,7.6-3.4c2.4-1.7,4.3-3.5,4.3-3.5l0.3-0.3l0.3,0.3c0,0,1.8,1.7,4.3,3.5c2.4,1.7,5.5,3.4,7.6,3.4
		s5.1-1.7,7.6-3.4c2.4-1.7,4.3-3.5,4.3-3.5l0.3-0.3l0.3,0.3c0,0,1.6,1.4,5.1,3.5c3.9,2.4,7,2.9,7.1,2.9c0.9-5.3,1.4-10.6,1.5-16
		C196.6,49.7,154.1,7.2,101.7,7.2L101.7,7.2z"/>
</g>
<g id="layer9" inkscape:groupmode="layer" inkscape:label="Layer 2">
	
		<path id="path4623" inkscape:connector-curvature="0" sodipodi:nodetypes="ccssscccssscccssscccssscccssscccssscccssccsscssscssscssscssscssscssscssscsccscccssscc" class="st1" d="
		M158.4,113l-0.3,0.3c0,0-1.9,1.7-4.3,3.5s-5.5,3.4-7.6,3.4s-5.1-1.7-7.4-3.4s-4.2-3.4-4.2-3.4l-0.3-0.3l-0.3,0.3
		c0,0-1.8,1.7-4.2,3.4s-5.3,3.4-7.4,3.4c-2,0-4.8-1.6-7.1-3.2s-4-3.3-4-3.3l-0.3-0.3l-0.3,0.3c0,0-1.7,1.6-4,3.3s-5.1,3.2-7.1,3.2
		s-4.8-1.6-7-3.2s-4-3.2-4-3.2l-0.3-0.3l-0.3,0.3c0,0-1.7,1.6-4,3.2s-5.1,3.2-7,3.2c-2,0-4.8-1.6-7-3.2c-2.3-1.6-4-3.2-4-3.2
		l-0.3-0.3l-0.3,0.3c0,0-1.7,1.6-4,3.2s-5.1,3.2-7,3.2c-2,0-4.8-1.6-7-3.2s-4-3.2-4-3.2l-0.3-0.3l-0.3,0.3c0,0-1.7,1.6-4,3.2
		c-2.2,1.6-5,3.2-7,3.2c-2.1,0-5-1.6-7.3-3.3c-2.4-1.7-4.1-3.4-4.1-3.4l-0.3-0.2l-0.3,0.2c0,0-1.3,1-2.8,2.2s-3.3,2.5-4.2,3
		c-2,1.1-4.6,1.6-4.6,1.6l0.1,0.8c0,0,2.8-0.4,4.9-1.6c1-0.6,2.7-1.9,4.2-3c1.4-1.1,2.3-1.8,2.6-2c0.2,0.2,1.7,1.6,4,3.2
		c2.4,1.7,5.3,3.5,7.8,3.5c2.4,0,5.2-1.7,7.5-3.3c2.1-1.5,3.6-2.9,3.8-3.1c0.2,0.2,1.6,1.5,3.8,3.1c2.3,1.6,5.1,3.3,7.5,3.3
		s5.2-1.7,7.5-3.3c2.1-1.5,3.6-2.9,3.8-3.1c0.2,0.2,1.6,1.5,3.8,3.1c2.3,1.6,5.1,3.3,7.5,3.3s5.2-1.7,7.5-3.3
		c2.1-1.5,3.6-2.9,3.8-3.1c0.2,0.2,1.6,1.5,3.8,3.1c2.3,1.6,5.1,3.3,7.5,3.3s5.2-1.7,7.6-3.4c2.2-1.5,3.6-2.9,3.8-3.1
		c0.2,0.2,1.6,1.5,3.8,3.1c2.3,1.7,5.2,3.4,7.6,3.4c2.5,0,5.5-1.8,7.9-3.5c2.3-1.6,3.8-3,4-3.2c0.2,0.2,1.7,1.6,4,3.2
		c2.4,1.7,5.4,3.5,7.9,3.5s5.6-1.8,8.1-3.6c2.3-1.7,3.9-3.1,4.1-3.3c0.2,0.2,1.8,1.7,4.1,3.3c2.5,1.8,5.5,3.6,8.1,3.6
		c2.5,0,5.6-1.8,8-3.6c2.3-1.7,3.9-3.1,4.1-3.3c0.2,0.2,1.8,1.7,4.1,3.3c2.5,1.8,8,3.6,8,3.6v-0.8c0,0-5.1-1.7-7.6-3.4
		s-4.3-3.5-4.3-3.5l-0.3-0.3l-0.3,0.3c0,0-1.8,1.7-4.3,3.5s-5.4,3.4-7.6,3.4c-2.1,0-5.2-1.7-7.6-3.4s-4.3-3.5-4.3-3.5L158.4,113z"/>
	
		<path id="path6271" inkscape:connector-curvature="0" sodipodi:nodetypes="ccssscccssscccssscccssscccssscccssscccssccsscssscssscssscssscssscssscsccscc" class="st1" d="
		M170.4,132l-0.3,0.3c0,0-1.8,1.7-4.3,3.5c-2.4,1.7-5.5,3.4-7.6,3.4s-5.1-1.7-7.4-3.4c-2.4-1.7-4.2-3.4-4.2-3.4l-0.3-0.3l-0.3,0.3
		c0,0-1.8,1.7-4.2,3.4s-5.3,3.4-7.4,3.4c-2,0-4.8-1.6-7.1-3.2c-2.3-1.6-4-3.3-4-3.3l-0.3-0.3l-0.3,0.3c0,0-1.7,1.6-4,3.3
		c-2.3,1.6-5.1,3.2-7.1,3.2s-4.8-1.6-7-3.2c-2.2-1.6-4-3.2-4-3.2l-0.3-0.3l-0.3,0.3c0,0-1.7,1.6-4,3.2c-2.2,1.6-5.1,3.2-7,3.2
		c-2,0-4.8-1.6-7-3.2c-2.3-1.6-4-3.2-4-3.2l-0.3-0.3l-0.3,0.3c0,0-1.7,1.6-4,3.2c-2.3,1.6-5.1,3.2-7,3.2c-2,0-4.8-1.6-7-3.2
		c-2.2-1.6-4-3.2-4-3.2l-0.3-0.3l-0.3,0.3c0,0-1.7,1.6-4,3.2c-2.2,1.6-5,3.2-7,3.2c-2.1,0-5-1.6-7.3-3.3c-2.4-1.7-4.1-3.4-4.1-3.4
		l-0.3-0.2l-0.3,0.2c0,0-1.3,1-2.8,2.2s-3.3,2.5-4.2,3c-2,1.1-4.6,1.6-4.6,1.6l0.1,0.8c0,0,2.8-0.4,4.9-1.6c1-0.6,2.7-1.9,4.2-3
		c1.4-1.1,2.3-1.8,2.6-2c0.2,0.2,1.7,1.6,4,3.2c2.4,1.7,5.3,3.5,7.8,3.5c2.4,0,5.2-1.7,7.5-3.3c2.1-1.5,3.6-2.9,3.8-3.1
		c0.2,0.2,1.6,1.5,3.8,3.1c2.3,1.6,5.1,3.3,7.5,3.3s5.2-1.7,7.5-3.3c2.1-1.5,3.6-2.9,3.8-3.1c0.2,0.2,1.6,1.5,3.8,3.1
		c2.3,1.6,5.1,3.3,7.5,3.3s5.2-1.7,7.5-3.3c2.1-1.5,3.6-2.9,3.8-3.1c0.2,0.2,1.6,1.5,3.8,3.1c2.3,1.6,5.1,3.3,7.5,3.3
		s5.2-1.7,7.6-3.4c2.2-1.5,3.6-2.9,3.8-3.1c0.2,0.2,1.6,1.5,3.8,3.1c2.3,1.7,5.2,3.4,7.6,3.4c2.5,0,5.5-1.8,7.9-3.5
		c2.3-1.6,3.8-3,4-3.2c0.2,0.2,1.7,1.6,4,3.2c2.4,1.7,5.4,3.5,7.9,3.5s5.6-1.8,8.1-3.6c2.3-1.7,3.9-3.1,4.1-3.3
		c0.2,0.2,1.8,1.7,4.1,3.3c2.5,1.8,8.1,3.6,8.1,3.6v-0.8c0,0-5.2-1.7-7.6-3.4s-4.3-3.5-4.3-3.5L170.4,132z"/>
	
		<path id="path6273" inkscape:connector-curvature="0" sodipodi:nodetypes="cscccssscccssscccssscccssscccssscccssccsscssscssscssscssscssscscc" class="st1" d="
		M170.4,158.7c0,0-5.1-1.7-7.4-3.4s-4.2-3.4-4.2-3.4l-0.3-0.3l-0.3,0.3c0,0-1.8,1.7-4.2,3.4s-5.3,3.4-7.4,3.4c-2,0-4.8-1.6-7.1-3.2
		c-2.3-1.6-4-3.3-4-3.3l-0.3-0.3l-0.3,0.3c0,0-1.7,1.6-4,3.3c-2.3,1.6-5.1,3.2-7.1,3.2s-4.8-1.6-7-3.2c-2.2-1.6-4-3.2-4-3.2
		l-0.3-0.3l-0.3,0.3c0,0-1.7,1.6-4,3.2s-5.1,3.2-7,3.2c-2,0-4.8-1.6-7-3.2c-2.3-1.6-4-3.2-4-3.2l-0.3-0.3l-0.3,0.3
		c0,0-1.7,1.6-4,3.2c-2.3,1.6-5.1,3.2-7,3.2c-2,0-4.8-1.6-7-3.2c-2.2-1.6-4-3.2-4-3.2l-0.3-0.3l-0.3,0.3c0,0-1.7,1.6-4,3.2
		s-5,3.2-7,3.2c-2.1,0-5-1.6-7.3-3.3c-2.4-1.7-4.1-3.4-4.1-3.4l-0.3-0.2L44,152c0,0-1.3,1-2.8,2.2s-3.3,2.5-4.2,3
		c-2,1.1-4.6,1.6-4.6,1.6l0.1,0.8c0,0,2.8-0.4,4.9-1.6c1-0.6,2.7-1.9,4.2-3c1.4-1.1,2.3-1.8,2.6-2c0.2,0.2,1.7,1.6,4,3.2
		c2.4,1.7,5.3,3.5,7.8,3.5c2.4,0,5.2-1.7,7.5-3.3c2.1-1.5,3.6-2.9,3.8-3.1c0.2,0.2,1.6,1.5,3.8,3.1c2.3,1.6,5.1,3.3,7.5,3.3
		s5.2-1.7,7.5-3.3c2.1-1.5,3.6-2.9,3.8-3.1c0.2,0.2,1.6,1.5,3.8,3.1c2.3,1.6,5.1,3.3,7.5,3.3s5.2-1.7,7.5-3.3
		c2.1-1.5,3.6-2.9,3.8-3.1c0.2,0.2,1.6,1.5,3.8,3.1c2.3,1.6,5.1,3.3,7.5,3.3s5.2-1.7,7.6-3.4c2.2-1.5,3.6-2.9,3.8-3.1
		c0.2,0.2,1.6,1.5,3.8,3.1c2.3,1.7,5.2,3.4,7.6,3.4c2.5,0,5.5-1.8,7.9-3.5c2.3-1.6,3.8-3,4-3.2c0.2,0.2,1.7,1.6,4,3.2
		c2.4,1.7,7.9,3.5,7.9,3.5L170.4,158.7L170.4,158.7z"/>
</g>
</svg>
